# xmcd CD database file
#
# Track frame offsets:
#	150
#	15620
#	24802
#	39735
#	49357
#	63532
#	76967
#	91452
#	110957
#	126287
#	147450
#	162602
#	170350
#	180587
#	191172
#	206745
#	228477
#
# Disc length: 3201 seconds
#
# Revision: 12
# Processed by: cddbd v1.5.2PL0 Copyright (c) Steve Scherf et al.
# Submitted via: CDex 1.70beta2
#
DISCID=f90c7f11
DTITLE=Art Garfunkel - The Very Best Of Art Garfunkel Across America
DYEAR=1996
DGENRE=Folk,Singer/Songwriter
TTITLE0=Art Garfunkel The Very Best Of - A Heart In New York
TTITLE1=Crying In The Rain
TTITLE2=Scarborough Fair
TTITLE3=A Poem On The Underground Wall
TTITLE4=I Only Have Eyes For You
TTITLE5=Homeward Bound
TTITLE6=All I Know
TTITLE7=Bright Eyes
TTITLE8=El Condor Pasa (If I Could)
TTITLE9=Bridge Over Troubled Water
TTITLE10=Mrs. Robinson
TTITLE11=The 59th Street Bridge Song (Feelin' Groovy)
TTITLE12=I Will
TTITLE13=April Come She Will
TTITLE14=The Sound Of Silence
TTITLE15=Grateful
TTITLE16=Goodnight My Love
EXTD=YEAR: 1996
EXTT0=
EXTT1=Duet with James Taylor
EXTT2=
EXTT3=
EXTT4=
EXTT5=
EXTT6=
EXTT7=
EXTT8=
EXTT9=
EXTT10=
EXTT11=
EXTT12=
EXTT13=
EXTT14=
EXTT15=
EXTT16=
PLAYORDER=
